<?xml version="1.0" encoding="utf-8"?>
<!-- Generator: Adobe Illustrator 24.1.1, SVG Export Plug-In . SVG Version: 6.00 Build 0)  -->
<svg version="1.1" id="Layer_2" xmlns="http://www.w3.org/2000/svg" xmlns:xlink="http://www.w3.org/1999/xlink" x="0px" y="0px"
	 viewBox="0 0 641 121" style="enable-background:new 0 0 641 121;" xml:space="preserve">
<style type="text/css">
	.st0{fill:#231F20;}
	.st1{fill:url(#SVGID_1_);}
	.st2{fill:url(#SVGID_2_);}
	.st3{fill:url(#SVGID_3_);}
	.st4{fill:url(#SVGID_4_);}
</style>
<g>
	<g>
		<circle class="st0" cx="60.6" cy="60.5" r="56.5"/>
		<linearGradient id="SVGID_1_" gradientUnits="userSpaceOnUse" x1="69.2115" y1="113.0746" x2="57.2924" y2="78.459">
			<stop  offset="0" style="stop-color:#00AEEF"/>
			<stop  offset="1" style="stop-color:#2B3990"/>
		</linearGradient>
		<path class="st1" d="M19.18,92.67C28.78,105.02,43.74,113,60.6,113c18.16,0,34.16-9.22,43.59-23.24
			C76.15,102.82,47.12,75.16,19.18,92.67z"/>
		<linearGradient id="SVGID_2_" gradientUnits="userSpaceOnUse" x1="31.8511" y1="101.5478" x2="90.7113" y2="17.4867">
			<stop  offset="0.3911" style="stop-color:#F15A29"/>
			<stop  offset="1" style="stop-color:#FBB040"/>
		</linearGradient>
		<path class="st2" d="M60.6,8C31.61,8,8.1,31.51,8.1,60.5c0,12.14,4.16,23.28,11.07,32.17c27.94-17.51,56.97,10.15,85.02-2.91
			c5.62-8.36,8.91-18.43,8.91-29.26C113.1,31.51,89.6,8,60.6,8z"/>
		<linearGradient id="SVGID_3_" gradientUnits="userSpaceOnUse" x1="43.4301" y1="90.9917" x2="48.914" y2="12.5672">
			<stop  offset="0" style="stop-color:#FFFFFF"/>
			<stop  offset="1" style="stop-color:#A7A9AC"/>
		</linearGradient>
		<path class="st3" d="M61.72,51.96c1.12-11.87,3.88-25.5,10.03-37.79C27.7,40.97,19.68,90.49,20.7,89.38
			C36.37,72.43,62,83.04,62,83.04s-1.74-12.39-0.48-28.65l-3.55-1.18L61.72,51.96z"/>
		<linearGradient id="SVGID_4_" gradientUnits="userSpaceOnUse" x1="83.2122" y1="89.8709" x2="87.4199" y2="29.6981">
			<stop  offset="0" style="stop-color:#FFFFFF"/>
			<stop  offset="1" style="stop-color:#A7A9AC"/>
		</linearGradient>
		<path class="st4" d="M71.17,28.56c-3.51,6.16-5.3,14.92-5.93,23.88l2.23-0.74v6l-2.45-0.82c-0.44,15.23,2.22,29.87,5.27,32.09
			c1.31-1.97,7-15.37,33.9-4.73C104.73,84.45,76.89,64.14,71.17,28.56z"/>
	</g>
	<g>
		<path d="M148.61,25.82h-5.44v50.66c0,1.47,0.52,2.73,1.57,3.78c1.05,1.05,2.34,1.57,3.87,1.57h1.02l0.08,0.85H131.1v-0.85h1.1
			c1.47,0,2.73-0.51,3.78-1.53c1.05-1.02,1.6-2.27,1.66-3.74V29.39c-0.06-1.47-0.61-2.73-1.66-3.78c-1.05-1.05-2.31-1.57-3.78-1.57
			h-1.1v-0.85h22.95c5.16,0,9.21,1.43,12.16,4.29c2.95,2.86,4.42,6.57,4.42,11.14c0,4.56-1.4,8.5-4.21,11.81
			c-2.81,3.32-6.22,4.97-10.24,4.97c0.85,0.4,1.86,1.18,3.02,2.34c1.16,1.16,2.2,2.37,3.1,3.61c4.87,6.97,8.05,11.26,9.52,12.88
			c1.47,1.61,2.52,2.72,3.14,3.31c0.62,0.59,1.3,1.18,2.04,1.74c0.74,0.57,1.47,1.02,2.21,1.36c1.64,0.79,3.4,1.19,5.27,1.19v0.85
			h-4.67c-2.44,0-4.71-0.44-6.8-1.32c-2.1-0.88-3.67-1.79-4.72-2.72c-1.05-0.94-1.96-1.84-2.72-2.72c-0.76-0.88-2.88-3.81-6.33-8.8
			c-3.46-4.99-5.47-7.83-6.04-8.54c-0.57-0.71-1.16-1.4-1.79-2.08c-1.81-1.93-3.63-2.89-5.44-2.89v-0.85
			c0.45,0.06,1.05,0.08,1.78,0.08s1.64-0.03,2.72-0.08c7.03-0.17,11.45-3.12,13.26-8.84c0.34-1.13,0.51-2.2,0.51-3.19
			c0-0.99,0-1.63,0-1.91c-0.11-3.8-1.1-6.86-2.97-9.18c-1.87-2.32-4.39-3.57-7.57-3.74C152.35,25.85,150.65,25.82,148.61,25.82z"/>
		<path d="M188.37,76.99c1.12,0,2.07-0.36,2.83-1.08c0.77-0.72,1.18-1.6,1.23-2.63V40.03c0-1.03-0.4-1.89-1.19-2.59
			c-0.79-0.7-1.75-1.05-2.87-1.05h-0.98v-0.7h20.44c1.91,0,3.59-0.14,5.04-0.42c1.45-0.28,2.38-0.51,2.8-0.7v7.98l-0.77-0.07v-1.05
			c0-0.98-0.33-1.82-0.98-2.52s-1.49-1.05-2.52-1.05h-14.56v17.78h11.97c0.93,0,1.64-0.28,2.13-0.84c0.49-0.56,0.74-1.26,0.74-2.1
			v-0.91h0.77v9.8h-0.77v-0.91c0-1.31-0.49-2.19-1.47-2.66c-0.37-0.14-0.77-0.23-1.19-0.28h-12.18v17.78h10.99
			c2.15,0,3.96-0.37,5.42-1.12c1.47-0.75,2.59-1.63,3.36-2.66c0.77-1.03,1.55-2.38,2.34-4.06h0.7l-3.85,10.01h-28.42v-0.7H188.37z"
			/>
		<path d="M244.3,37.72v35.56c0.05,1.45,0.75,2.52,2.1,3.22c0.61,0.33,1.28,0.49,2.03,0.49h0.77v0.7h-14.42v-0.7h0.84
			c1.12,0,2.08-0.37,2.87-1.12c0.79-0.75,1.21-1.63,1.26-2.66V37.72h-12.67c-1.07,0-1.92,0.35-2.55,1.05s-0.95,1.54-0.95,2.52v1.12
			h-0.77V34.5c0.93,0.37,2.25,0.65,3.96,0.84c1.7,0.19,2.97,0.28,3.81,0.28h22.82c3.36,0,5.97-0.37,7.84-1.12v7.91h-0.77v-1.12
			c0-0.98-0.33-1.82-0.98-2.52s-1.49-1.05-2.52-1.05H244.3z"/>
		<path d="M267.05,76.99c1.26,0,2.36-0.37,3.29-1.12c0.93-0.75,1.4-1.63,1.4-2.66V40.17c0-1.03-0.47-1.91-1.4-2.66
			c-0.93-0.75-2.05-1.12-3.36-1.12h-0.91v-0.7h15.82v0.7h-0.91c-1.26,0-2.34,0.35-3.25,1.05s-1.41,1.56-1.5,2.59v33.25
			c0.05,1.03,0.54,1.9,1.47,2.63c0.93,0.72,2.03,1.08,3.29,1.08h0.91l0.07,0.7h-15.89v-0.7H267.05z"/>
		<path d="M302.68,37.86h-3.71v35.35c0.05,1.45,0.7,2.54,1.96,3.29c0.61,0.33,1.28,0.49,2.03,0.49h0.91l0.07,0.7h-14.35v-0.7h0.98
			c1.07,0,2-0.36,2.77-1.08c0.77-0.72,1.15-1.6,1.15-2.63V40.03c0-1.03-0.38-1.89-1.15-2.59c-0.77-0.7-1.69-1.05-2.77-1.05h-0.98
			v-0.7h17.57c4.39,0,7.85,1,10.4,3.01c2.54,2.01,3.81,4.64,3.81,7.91c0,3.27-1.03,6-3.08,8.19s-4.67,3.45-7.84,3.78
			c1.49,0.65,3.29,2.47,5.39,5.46c-0.05,0,0.76,1.03,2.42,3.08c1.66,2.05,2.99,3.65,3.99,4.79c1,1.14,1.83,2.02,2.49,2.63
			c1.73,1.63,3.71,2.45,5.95,2.45v0.7h-2.17c-3.69,0-6.58-0.72-8.68-2.17c-1.59-1.07-3.03-2.4-4.34-3.99
			c-0.28-0.37-1.46-2.02-3.54-4.93c-2.08-2.92-3.18-4.47-3.32-4.66c-2.52-3.13-4.88-4.69-7.07-4.69v-0.7c5.46,0,8.75-0.28,9.87-0.84
			c1.54-0.79,2.59-1.63,3.15-2.52c1.17-1.87,1.75-3.92,1.75-6.16c0-2.85-0.84-5.04-2.52-6.58s-3.94-2.38-6.79-2.52
			C305.76,37.88,304.32,37.86,302.68,37.86z"/>
		<path d="M334.46,76.99c1.12,0,2.06-0.36,2.83-1.08c0.77-0.72,1.18-1.6,1.22-2.63V40.03c0-1.03-0.4-1.89-1.19-2.59
			c-0.79-0.7-1.75-1.05-2.87-1.05h-0.98v-0.7h20.44c1.91,0,3.59-0.14,5.04-0.42c1.45-0.28,2.38-0.51,2.8-0.7v7.98l-0.77-0.07v-1.05
			c0-0.98-0.33-1.82-0.98-2.52c-0.65-0.7-1.49-1.05-2.52-1.05h-14.56v17.78h11.97c0.93,0,1.65-0.28,2.13-0.84
			c0.49-0.56,0.74-1.26,0.74-2.1v-0.91h0.77v9.8h-0.77v-0.91c0-1.31-0.49-2.19-1.47-2.66c-0.37-0.14-0.77-0.23-1.19-0.28h-12.18
			v17.78h10.99c2.15,0,3.96-0.37,5.42-1.12c1.47-0.75,2.59-1.63,3.36-2.66c0.77-1.03,1.55-2.38,2.34-4.06h0.7l-3.85,10.01h-28.42
			v-0.7H334.46z"/>
		<path d="M499.08,94.29c-1.42,1.5-3.43,2.97-6.04,4.42c-2.61,1.45-5.24,2.52-7.91,3.23c-2.66,0.71-5.01,1.06-7.05,1.06
			c-6.57,0-12.81-1.28-18.7-3.83c-2.1-0.91-5.64-2.63-10.63-5.19c-11.16-5.72-19.52-9.09-25.08-10.11
			c-8.78-0.23-15.91-3.17-21.38-8.84c-5.47-5.67-8.2-13.08-8.2-22.23c0-9.15,2.82-16.57,8.46-22.27c5.64-5.69,12.99-8.54,22.06-8.54
			c9.07,0,16.4,2.85,22.02,8.54c5.61,5.7,8.41,13.16,8.41,22.4c0,7.88-2.1,14.51-6.29,19.89c-4.2,5.38-9.8,8.81-16.83,10.29
			c6.18,1.87,15.55,5.5,28.13,10.88c6.01,2.49,12.13,3.74,18.36,3.74c3.51,0,7.05-0.42,10.63-1.28c4.99-1.3,9.15-3.51,12.5-6.63
			l0.34,0.43C501.43,91.44,500.5,92.79,499.08,94.29z M407.11,32.37c-4.42,5.21-6.63,12.07-6.63,20.57c0,8.5,2.22,15.36,6.67,20.57
			c4.45,5.21,10.29,7.82,17.51,7.82c7.22,0,13.03-2.61,17.42-7.82c4.39-5.21,6.59-12.07,6.59-20.57c0-5.61-0.99-10.57-2.97-14.87
			c-1.98-4.31-4.8-7.64-8.46-9.99c-3.66-2.35-7.86-3.53-12.62-3.53C417.37,24.55,411.53,27.15,407.11,32.37z"/>
		<path d="M506.7,36.39h-1.05c-1.26,0-2.22,0.49-2.87,1.47c-0.28,0.42-0.44,0.91-0.49,1.47v23.59c0,4.85-1.55,8.69-4.65,11.51
			c-3.1,2.82-7.36,4.24-12.78,4.24c-5.41,0-9.68-1.4-12.81-4.2c-3.13-2.8-4.69-6.63-4.69-11.48V39.4c0-0.84-0.33-1.55-0.98-2.13
			c-0.65-0.58-1.45-0.88-2.38-0.88h-1.05v-0.7h13.3v0.7h-1.05c-0.93,0-1.73,0.29-2.38,0.88c-0.65,0.58-0.98,1.29-0.98,2.13v22.75
			c0,4.53,1.15,8.1,3.46,10.71c2.31,2.61,5.58,3.92,9.8,3.92c4.22,0,7.61-1.24,10.15-3.71c2.54-2.47,3.81-5.86,3.81-10.15V39.4
			c-0.05-0.89-0.38-1.61-1.01-2.17s-1.41-0.84-2.35-0.84h-1.05v-0.7h12.04V36.39z"/>
		<path d="M523.5,37.47c3.59-1.84,7.55-2.77,11.87-2.77c4.32,0,8.27,0.92,11.87,2.77c3.59,1.84,6.45,4.45,8.58,7.8
			c2.12,3.36,3.18,7.16,3.18,11.41c0,4.25-1.06,8.05-3.18,11.41c-2.12,3.36-4.98,5.96-8.58,7.8c-3.59,1.84-7.28,2.77-11.06,2.77
			c-3.78,0-7.12-0.54-10.01-1.61c-2.89-1.07-5.4-2.57-7.53-4.48c-2.12-1.91-3.8-4.25-5.04-7c-1.24-2.75-1.86-5.98-1.86-9.69
			s1.06-7.24,3.18-10.6C517.05,41.92,519.91,39.32,523.5,37.47z M522.2,71c3.52,3.71,7.9,5.56,13.13,5.56s9.61-1.85,13.16-5.56
			c3.55-3.71,5.32-8.48,5.32-14.32c0-5.83-1.77-10.6-5.32-14.31c-3.55-3.71-7.93-5.56-13.16-5.56s-9.6,1.85-13.13,5.56
			s-5.29,8.48-5.29,14.31C516.92,62.52,518.68,67.29,522.2,71z"/>
		<path d="M582.86,37.72v35.56c0.05,1.45,0.75,2.52,2.1,3.22c0.61,0.33,1.28,0.49,2.03,0.49h0.77v0.7h-14.42v-0.7h0.84
			c1.12,0,2.08-0.37,2.87-1.12c0.79-0.75,1.21-1.63,1.26-2.66V37.72h-12.67c-1.07,0-1.93,0.35-2.56,1.05s-0.94,1.54-0.94,2.52v1.12
			h-0.77V34.5c0.93,0.37,2.25,0.65,3.96,0.84c1.7,0.19,2.98,0.28,3.82,0.28h22.82c3.36,0,5.97-0.37,7.84-1.12v7.91h-0.77v-1.12
			c0-0.98-0.33-1.82-0.98-2.52c-0.65-0.7-1.49-1.05-2.52-1.05H582.86z"/>
		<path d="M605.61,76.99c1.12,0,2.06-0.36,2.83-1.08c0.77-0.72,1.18-1.6,1.22-2.63V40.03c0-1.03-0.4-1.89-1.19-2.59
			c-0.79-0.7-1.75-1.05-2.87-1.05h-0.98v-0.7h20.44c1.91,0,3.59-0.14,5.04-0.42c1.45-0.28,2.38-0.51,2.8-0.7v7.98l-0.77-0.07v-1.05
			c0-0.98-0.33-1.82-0.98-2.52c-0.65-0.7-1.49-1.05-2.52-1.05h-14.56v17.78h11.97c0.93,0,1.65-0.28,2.14-0.84
			c0.49-0.56,0.73-1.26,0.73-2.1v-0.91h0.77v9.8h-0.77v-0.91c0-1.31-0.49-2.19-1.47-2.66c-0.37-0.14-0.77-0.23-1.19-0.28h-12.18
			v17.78h10.99c2.15,0,3.96-0.37,5.42-1.12c1.47-0.75,2.59-1.63,3.36-2.66c0.77-1.03,1.55-2.38,2.34-4.06h0.7l-3.85,10.01h-28.42
			v-0.7H605.61z"/>
	</g>
</g>
</svg>