<?xml version="1.0" encoding="utf-8"?>
<!-- Generator: Adobe Illustrator 24.1.1, SVG Export Plug-In . SVG Version: 6.00 Build 0)  -->
<svg version="1.1" id="Layer_2_1_" xmlns="http://www.w3.org/2000/svg" xmlns:xlink="http://www.w3.org/1999/xlink" x="0px" y="0px"
	 viewBox="0 0 641 121" style="enable-background:new 0 0 641 121;" xml:space="preserve">
<style type="text/css">
	.st0{fill:#231F20;}
	.st1{fill:url(#SVGID_1_);}
	.st2{fill:url(#SVGID_2_);}
	.st3{fill:url(#SVGID_3_);}
	.st4{fill:url(#SVGID_4_);}
	.st5{fill:#FFFFFF;}
</style>
<g>
	<g>
		<circle class="st0" cx="60.6" cy="60.5" r="56.5"/>
		
			<linearGradient id="SVGID_1_" gradientUnits="userSpaceOnUse" x1="69.2118" y1="8.9257" x2="57.2922" y2="43.5427" gradientTransform="matrix(1 0 0 -1 0 122)">
			<stop  offset="0" style="stop-color:#00AEEF"/>
			<stop  offset="1" style="stop-color:#2B3990"/>
		</linearGradient>
		<path class="st1" d="M19.2,92.7C28.8,105,43.7,113,60.6,113c18.2,0,34.2-9.2,43.6-23.2C76.2,102.8,47.1,75.2,19.2,92.7z"/>
		
			<linearGradient id="SVGID_2_" gradientUnits="userSpaceOnUse" x1="31.8499" y1="20.4515" x2="90.7103" y2="104.5129" gradientTransform="matrix(1 0 0 -1 0 122)">
			<stop  offset="0.3911" style="stop-color:#F15A29"/>
			<stop  offset="1" style="stop-color:#FBB040"/>
		</linearGradient>
		<path class="st2" d="M60.6,8C31.6,8,8.1,31.5,8.1,60.5c0,12.1,4.2,23.3,11.1,32.2c27.9-17.5,57,10.2,85-2.9
			c5.6-8.4,8.9-18.4,8.9-29.3C113.1,31.5,89.6,8,60.6,8z"/>
		
			<linearGradient id="SVGID_3_" gradientUnits="userSpaceOnUse" x1="43.4298" y1="31.0101" x2="48.9132" y2="109.4269" gradientTransform="matrix(1 0 0 -1 0 122)">
			<stop  offset="0" style="stop-color:#FFFFFF"/>
			<stop  offset="1" style="stop-color:#A7A9AC"/>
		</linearGradient>
		<path class="st3" d="M61.7,52c1.1-11.9,3.9-25.5,10-37.8c-44,26.8-52.1,76.3-51,75.2C36.4,72.4,62,83,62,83s-1.7-12.4-0.5-28.7
			L58,53.2L61.7,52z"/>
		
			<linearGradient id="SVGID_4_" gradientUnits="userSpaceOnUse" x1="83.2131" y1="32.1263" x2="87.4211" y2="92.3036" gradientTransform="matrix(1 0 0 -1 0 122)">
			<stop  offset="0" style="stop-color:#FFFFFF"/>
			<stop  offset="1" style="stop-color:#A7A9AC"/>
		</linearGradient>
		<path class="st4" d="M71.2,28.6c-3.5,6.2-5.3,14.9-5.9,23.9l2.2-0.7v6L65,56.9c-0.4,15.2,2.2,29.9,5.3,32.1c1.3-2,7-15.4,33.9-4.7
			C104.7,84.4,76.9,64.1,71.2,28.6z"/>
	</g>
	<g>
		<path class="st5" d="M148.6,25.8h-5.4v50.7c0,1.5,0.5,2.7,1.6,3.8c1.1,1.1,2.3,1.6,3.9,1.6h1l0.1,0.8h-18.6v-0.8h1.1
			c1.5,0,2.7-0.5,3.8-1.5s1.6-2.3,1.7-3.7V29.4c-0.1-1.5-0.6-2.7-1.7-3.8c-1.1-1-2.3-1.6-3.8-1.6h-1.1v-0.9h22.9
			c5.2,0,9.2,1.4,12.2,4.3s4.4,6.6,4.4,11.1c0,4.6-1.4,8.5-4.2,11.8c-2.8,3.3-6.2,5-10.2,5c0.9,0.4,1.9,1.2,3,2.3s2.2,2.4,3.1,3.6
			c4.9,7,8.1,11.3,9.5,12.9c1.5,1.6,2.5,2.7,3.1,3.3s1.3,1.2,2,1.7c0.7,0.6,1.5,1,2.2,1.4c1.6,0.8,3.4,1.2,5.3,1.2v0.8h-4.7
			c-2.4,0-4.7-0.4-6.8-1.3c-2.1-0.9-3.7-1.8-4.7-2.7c-1.1-0.9-2-1.8-2.7-2.7c-0.8-0.9-2.9-3.8-6.3-8.8c-3.5-5-5.5-7.8-6-8.5
			c-0.6-0.7-1.2-1.4-1.8-2.1c-1.8-1.9-3.6-2.9-5.4-2.9v-0.8c0.4,0.1,1.1,0.1,1.8,0.1s1.6,0,2.7-0.1c7-0.2,11.4-3.1,13.3-8.8
			c0.3-1.1,0.5-2.2,0.5-3.2c0-1,0-1.6,0-1.9c-0.1-3.8-1.1-6.9-3-9.2s-4.4-3.6-7.6-3.7C152.4,25.9,150.6,25.8,148.6,25.8z"/>
		<path class="st5" d="M188.4,77c1.1,0,2.1-0.4,2.8-1.1c0.8-0.7,1.2-1.6,1.2-2.6V40c0-1-0.4-1.9-1.2-2.6c-0.8-0.7-1.8-1-2.9-1h-1
			v-0.7h20.4c1.9,0,3.6-0.1,5-0.4s2.4-0.5,2.8-0.7v8l-0.8-0.1v-1c0-1-0.3-1.8-1-2.5s-1.5-1-2.5-1h-14.6v17.8h12
			c0.9,0,1.6-0.3,2.1-0.8s0.7-1.3,0.7-2.1v-0.9h0.8v9.8h-0.8v-0.9c0-1.3-0.5-2.2-1.5-2.7c-0.4-0.1-0.8-0.2-1.2-0.3h-12.2v17.8h11
			c2.1,0,4-0.4,5.4-1.1c1.5-0.8,2.6-1.6,3.4-2.7c0.8-1,1.6-2.4,2.3-4.1h0.7l-3.9,10h-28.4V77C187.4,77,188.4,77,188.4,77z"/>
		<path class="st5" d="M244.3,37.7v35.6c0.1,1.4,0.8,2.5,2.1,3.2c0.6,0.3,1.3,0.5,2,0.5h0.8v0.7h-14.4V77h0.8c1.1,0,2.1-0.4,2.9-1.1
			s1.2-1.6,1.3-2.7V37.7h-12.7c-1.1,0-1.9,0.3-2.6,1s-0.9,1.5-0.9,2.5v1.1h-0.8v-7.9c0.9,0.4,2.3,0.7,4,0.8c1.7,0.2,3,0.3,3.8,0.3
			h22.8c3.4,0,6-0.4,7.8-1.1v7.9h-0.8v-1.1c0-1-0.3-1.8-1-2.5s-1.5-1-2.5-1H244.3z"/>
		<path class="st5" d="M267,77c1.3,0,2.4-0.4,3.3-1.1c0.9-0.8,1.4-1.6,1.4-2.7v-33c0-1-0.5-1.9-1.4-2.7s-2-1.1-3.4-1.1h-0.9v-0.7
			h15.8v0.7H281c-1.3,0-2.3,0.3-3.3,1s-1.4,1.6-1.5,2.6v33.3c0,1,0.5,1.9,1.5,2.6c0.9,0.7,2,1.1,3.3,1.1h0.9l0.1,0.7h-15.9V77H267z"
			/>
		<path class="st5" d="M302.7,37.9H299v35.3c0,1.4,0.7,2.5,2,3.3c0.6,0.3,1.3,0.5,2,0.5h0.9l0.1,0.7h-14.4V77h1c1.1,0,2-0.4,2.8-1.1
			s1.1-1.6,1.1-2.6V40c0-1-0.4-1.9-1.1-2.6s-1.7-1-2.8-1h-1v-0.7h17.6c4.4,0,7.9,1,10.4,3c2.5,2,3.8,4.6,3.8,7.9s-1,6-3.1,8.2
			s-4.7,3.5-7.8,3.8c1.5,0.7,3.3,2.5,5.4,5.5c0,0,0.8,1,2.4,3.1s3,3.7,4,4.8s1.8,2,2.5,2.6c1.7,1.6,3.7,2.4,6,2.4v0.7h-2.2
			c-3.7,0-6.6-0.7-8.7-2.2c-1.6-1.1-3-2.4-4.3-4c-0.3-0.4-1.5-2-3.5-4.9c-2.1-2.9-3.2-4.5-3.3-4.7c-2.5-3.1-4.9-4.7-7.1-4.7v-0.7
			c5.5,0,8.8-0.3,9.9-0.8c1.5-0.8,2.6-1.6,3.1-2.5c1.2-1.9,1.8-3.9,1.8-6.2c0-2.8-0.8-5-2.5-6.6s-3.9-2.4-6.8-2.5
			C305.8,37.9,304.3,37.9,302.7,37.9z"/>
		<path class="st5" d="M334.5,77c1.1,0,2.1-0.4,2.8-1.1s1.2-1.6,1.2-2.6V40c0-1-0.4-1.9-1.2-2.6s-1.8-1-2.9-1h-1v-0.7h20.4
			c1.9,0,3.6-0.1,5-0.4s2.4-0.5,2.8-0.7v8l-0.8-0.1v-1c0-1-0.3-1.8-1-2.5c-0.6-0.7-1.5-1-2.5-1h-14.6v17.8h12c0.9,0,1.6-0.3,2.1-0.8
			c0.5-0.6,0.7-1.3,0.7-2.1v-0.9h0.8v9.8h-0.8v-0.9c0-1.3-0.5-2.2-1.5-2.7c-0.4-0.1-0.8-0.2-1.2-0.3h-12.2v17.8h11
			c2.1,0,4-0.4,5.4-1.1c1.5-0.8,2.6-1.6,3.4-2.7c0.8-1,1.5-2.4,2.3-4.1h0.7l-3.9,10h-28.4V77C333.5,77,334.5,77,334.5,77z"/>
		<path class="st5" d="M499.1,94.3c-1.4,1.5-3.4,3-6,4.4c-2.6,1.4-5.2,2.5-7.9,3.2c-2.7,0.7-5,1.1-7,1.1c-6.6,0-12.8-1.3-18.7-3.8
			c-2.1-0.9-5.6-2.6-10.6-5.2c-11.2-5.7-19.5-9.1-25.1-10.1c-8.8-0.2-15.9-3.2-21.4-8.8s-8.2-13.1-8.2-22.2s2.8-16.6,8.5-22.3
			c5.6-5.7,13-8.5,22.1-8.5s16.4,2.9,22,8.5c5.6,5.7,8.4,13.2,8.4,22.4c0,7.9-2.1,14.5-6.3,19.9c-4.2,5.4-9.8,8.8-16.8,10.3
			c6.2,1.9,15.5,5.5,28.1,10.9c6,2.5,12.1,3.7,18.4,3.7c3.5,0,7-0.4,10.6-1.3c5-1.3,9.1-3.5,12.5-6.6l0.3,0.4
			C501.4,91.4,500.5,92.8,499.1,94.3z M407.1,32.4c-4.4,5.2-6.6,12.1-6.6,20.6s2.2,15.4,6.7,20.6s10.3,7.8,17.5,7.8s13-2.6,17.4-7.8
			s6.6-12.1,6.6-20.6c0-5.6-1-10.6-3-14.9c-2-4.3-4.8-7.6-8.5-10s-7.9-3.5-12.6-3.5C417.4,24.5,411.5,27.1,407.1,32.4z"/>
		<path class="st5" d="M506.7,36.4h-1c-1.3,0-2.2,0.5-2.9,1.5c-0.3,0.4-0.4,0.9-0.5,1.5v23.6c0,4.9-1.5,8.7-4.6,11.5
			s-7.4,4.2-12.8,4.2c-5.4,0-9.7-1.4-12.8-4.2c-3.1-2.8-4.7-6.6-4.7-11.5V39.4c0-0.8-0.3-1.5-1-2.1c-0.6-0.6-1.5-0.9-2.4-0.9h-1
			v-0.7h13.3v0.7h-1c-0.9,0-1.7,0.3-2.4,0.9c-0.6,0.6-1,1.3-1,2.1v22.8c0,4.5,1.1,8.1,3.5,10.7s5.6,3.9,9.8,3.9s7.6-1.2,10.1-3.7
			s3.8-5.9,3.8-10.2V39.4c0-0.9-0.4-1.6-1-2.2s-1.4-0.8-2.4-0.8h-1v-0.7h12L506.7,36.4L506.7,36.4z"/>
		<path class="st5" d="M523.5,37.5c3.6-1.8,7.5-2.8,11.9-2.8s8.3,0.9,11.9,2.8c3.6,1.8,6.5,4.5,8.6,7.8c2.1,3.4,3.2,7.2,3.2,11.4
			s-1.1,8.1-3.2,11.4c-2.1,3.4-5,6-8.6,7.8c-3.6,1.8-7.3,2.8-11.1,2.8c-3.8,0-7.1-0.5-10-1.6s-5.4-2.6-7.5-4.5c-2.1-1.9-3.8-4.3-5-7
			s-1.9-6-1.9-9.7s1.1-7.2,3.2-10.6C517,41.9,519.9,39.3,523.5,37.5z M522.2,71c3.5,3.7,7.9,5.6,13.1,5.6s9.6-1.8,13.2-5.6
			s5.3-8.5,5.3-14.3c0-5.8-1.8-10.6-5.3-14.3c-3.5-3.7-7.9-5.6-13.2-5.6s-9.6,1.8-13.1,5.6s-5.3,8.5-5.3,14.3
			C516.9,62.5,518.7,67.3,522.2,71z"/>
		<path class="st5" d="M582.9,37.7v35.6c0,1.4,0.8,2.5,2.1,3.2c0.6,0.3,1.3,0.5,2,0.5h0.8v0.7h-14.4V77h0.8c1.1,0,2.1-0.4,2.9-1.1
			s1.2-1.6,1.3-2.7V37.7h-12.7c-1.1,0-1.9,0.3-2.6,1s-0.9,1.5-0.9,2.5v1.1h-0.8v-7.9c0.9,0.4,2.3,0.7,4,0.8c1.7,0.2,3,0.3,3.8,0.3
			H592c3.4,0,6-0.4,7.8-1.1v7.9H599v-1.1c0-1-0.3-1.8-1-2.5c-0.7-0.7-1.5-1-2.5-1H582.9z"/>
		<path class="st5" d="M605.6,77c1.1,0,2.1-0.4,2.8-1.1s1.2-1.6,1.2-2.6V40c0-1-0.4-1.9-1.2-2.6s-1.8-1-2.9-1h-1v-0.7h20.4
			c1.9,0,3.6-0.1,5-0.4c1.5-0.3,2.4-0.5,2.8-0.7v8l-0.8-0.1v-1c0-1-0.3-1.8-1-2.5c-0.7-0.7-1.5-1-2.5-1h-14.6v17.8h12
			c0.9,0,1.7-0.3,2.1-0.8s0.7-1.3,0.7-2.1v-0.9h0.8v9.8h-0.8v-0.9c0-1.3-0.5-2.2-1.5-2.7c-0.4-0.1-0.8-0.2-1.2-0.3h-12.2v17.8h11
			c2.2,0,4-0.4,5.4-1.1c1.5-0.8,2.6-1.6,3.4-2.7c0.8-1,1.5-2.4,2.3-4.1h0.7l-3.8,10h-28.4V77C604.6,77,605.6,77,605.6,77z"/>
	</g>
</g>
</svg>